<svg width="343" height="86" viewBox="0 0 343 86" fill="none" xmlns="http://www.w3.org/2000/svg">
<g clip-path="url(#clip0_1687_6536)">
<path d="M25.6888 86C39.2492 86 50.1154 78.5256 50.1154 65.9605C50.1154 51.739 34.0467 50.2764 26.2309 50.131C15.5184 49.929 11.4972 46.212 11.4972 42.301C11.4972 37.7518 15.8421 33.0651 24.7098 33.0651C33.5774 33.0651 38.9013 36.5882 40.2525 43.0929L49.1364 38.9881C45.9 30.8672 37.1941 25.017 24.8878 25.017C12.5814 25.017 2.24925 30.9965 2.24925 42.802C2.24925 54.0015 14.7336 58.0821 25.7859 58.6154C35.7539 59.1003 40.4305 63.0193 40.4305 67.8514C40.4305 72.6835 34.7749 77.4751 26.0529 77.4751C17.3308 77.4751 10.5101 73.0794 8.81102 64.199L0.00805664 69.9765C3.60044 79.7215 12.1364 86.0081 25.6968 86.0081L25.6888 86Z" fill="black"/>
<path d="M56.5801 84.4809H66.2811V61.088C66.2811 45.1696 72.2846 36.071 81.5892 36.071C88.1915 36.071 93.4829 40.7254 93.4829 49.3957V84.489H103.103V46.8018C103.103 31.4167 94.6804 25.9463 86.6056 25.9463C76.7994 25.9463 69.6874 31.4248 68.8864 42.4707H66.2811V0.589874H56.5801V84.4809Z" fill="black"/>
<path d="M198.86 84.4647H209.451V0H198.86V84.4647Z" fill="black"/>
<path d="M283.798 25.6715C281.153 25.6715 279.243 27.6755 279.243 30.4471C279.243 33.3964 280.635 35.8771 282.253 38.7537C282.504 39.1982 282.755 39.6426 283.014 40.1112C287.601 48.4987 287.561 58.7528 282.9 66.8655C278.847 73.9844 271.581 77.7095 266.5 77.7095C262.001 77.7095 258.636 76.0611 256.483 72.7966C267.212 61.9446 273.863 47.7715 273.863 35.7155C273.863 29.235 271.249 25.6715 266.5 25.6715C256.799 25.6715 245.326 46.6806 245.326 64.4253C245.326 69.4028 246.184 73.6854 247.867 77.1439C244.218 79.4953 240.536 80.7396 237.195 80.7396C231.644 80.7396 228.95 77.1277 228.95 69.7018C228.95 53.7833 240.609 39.0931 247.583 30.3097C248.708 28.8875 249.679 27.6674 250.472 26.5927H250.334C249.307 27.328 245.674 29.9057 243.643 31.344C239.767 28.6694 233.125 25.6715 226.531 25.6715C221.684 25.6715 218.618 28.9118 217.121 32.5965L216.991 32.9197C216.336 34.6489 216.021 36.4589 216.021 38.0669C216.021 40.9597 217.679 42.6162 220.576 42.6162C223.319 42.6162 225.463 40.8627 225.463 38.6244C225.463 36.0549 223.132 34.4792 220.341 33.2106C220.6 33.2025 220.899 33.1944 221.247 33.1944C226.353 33.1944 233.748 35.3923 238.78 38.3497C226.11 48.8381 217.703 58.3811 217.703 70.5906C217.703 79.6165 223.594 85.6849 232.364 85.6849C237.292 85.6849 243.06 83.4385 249.072 79.172C251.888 83.3739 256.265 85.6849 261.451 85.6849C275.109 85.6849 292.731 64.0616 292.731 41.0971C292.731 33.4126 289.972 25.6715 283.798 25.6715ZM253.425 58.4781C253.425 47.9897 258.077 27.926 265.375 27.926C267.301 27.926 268.118 30.3582 268.118 36.0468C268.118 48.6684 263.336 61.5082 255.302 70.5583C254.056 67.6009 253.425 63.5364 253.425 58.4781Z" fill="black"/>
<path d="M339.642 61.1769C338.841 63.294 332.627 78.1539 315.758 78.1539C307.189 78.1539 303.023 73.4834 303.023 63.8596C303.023 62.9142 303.023 61.9365 303.095 60.983C328.096 59.5528 343 51.2461 343 38.7376C343 32.2328 338.226 25.6634 327.554 25.6634C308.856 25.6634 292.456 44.3454 292.456 65.6535C292.456 78.7518 299.196 85.6768 311.947 85.6768C335.168 85.6768 339.286 63.8435 339.707 61.1688H339.65L339.642 61.1769ZM327.328 27.926C331.074 27.926 333.218 30.7622 333.218 35.7155C333.218 47.7553 320.685 57.4114 303.322 58.8174C305.45 42.5677 316.777 27.926 327.328 27.926Z" fill="black"/>
<path d="M169.433 67.6978C167.968 70.8815 162.822 80.0851 157.871 80.0851C157.151 80.0851 156.633 79.867 156.285 79.4225C155.775 78.7761 155.363 77.2651 156.236 73.7662L168.3 25.5746H168.179L156.034 36.8872C154.206 29.9865 149.019 25.5746 142.603 25.5746C125.636 25.5746 110.757 44.9433 110.757 67.0191C110.757 78.469 116.55 85.5879 125.871 85.5879C134.334 85.5879 142.449 78.2105 150.031 63.6495L147.838 71.4795C146.398 76.5378 146.6 80.4811 148.429 82.889C149.658 84.5051 151.6 85.3616 154.06 85.3616C160.686 85.3616 165.371 78.9458 169.522 67.714L169.441 67.6897L169.433 67.6978ZM148.121 63.5283H148.097C142.021 74.5904 134.714 81.2002 128.557 81.2002C122.95 81.2002 121.769 74.2834 121.769 68.4816C121.769 49.1775 133.242 29.5178 144.504 29.5178C151.317 29.5178 153.947 36.2569 154.634 38.5436L148.113 63.5283H148.121Z" fill="black"/>
<path d="M172.702 84.4647H183.293V0H172.702V84.4647Z" fill="black"/>
</g>
<defs>
<clipPath id="clip0_1687_6536">
<rect width="343" height="86" fill="white"/>
</clipPath>
</defs>
</svg>
